PathFileType	4	(X/Y/Z)	c:/Users/goper/Files/vsCode/490R/osim_files/C06/C06_Slow_06.trc
DataRate	CameraRate	NumFrames	NumMarkers	Units                	OrigDataRate	OrigDataStartFrame	OrigNumFrames
250.00	250.00	7	36	mm	250.0	2614	4182
                Frame#	Time	LPSIS			LASIS			LTH1			LTH2			LTH3			LTH4			LLFE			LMFE			LSH1			LSH2			LSH3			LSH4			LLMAL			LMMAL			LCAL			LMTP5			LTOE			LMTP1			RPSIS			RASIS			RTH1			RTH2			RTH3			RTH4			RLFE			RMFE			RSH1			RSH2			RSH3			RSH4			RLMAL			RMMAL			RCAL			RMTP1			RTOE			RMTP5		
		X1	Y1	Z1	X2	Y2	Z2	X3	Y3	Z3	X4	Y4	Z4	X5	Y5	Z5	X6	Y6	Z6	X7	Y7	Z7	X8	Y8	Z8	X9	Y9	Z9	X10	Y10	Z10	X11	Y11	Z11	X12	Y12	Z12	X13	Y13	Z13	X14	Y14	Z14	X15	Y15	Z15	X16	Y16	Z16	X17	Y17	Z17	X18	Y18	Z18	X19	Y19	Z19	X20	Y20	Z20	X21	Y21	Z21	X22	Y22	Z22	X23	Y23	Z23	X24	Y24	Z24	X25	Y25	Z25	X26	Y26	Z26	X27	Y27	Z27	X28	Y28	Z28	X29	Y29	Z29	X30	Y30	Z30	X31	Y31	Z31	X32	Y32	Z32	X33	Y33	Z33	X34	Y34	Z34	X35	Y35	Z35	X36	Y36	Z36

2614	10.45200	-366.93097	994.58099	203.22864	-539.90637	975.33826	309.69168	-441.70020	779.83417	378.62332	-441.23987	716.62878	373.02676	-514.96973	774.39062	358.78549	-504.27222	713.25757	355.06729	-399.56537	469.09564	310.48178	-382.93030	459.41617	194.66550	-311.85214	371.43558	328.21362	-310.79361	327.86673	322.25146	-375.33609	363.57196	322.06604	-363.23807	321.29465	317.42804	-284.07010	93.40572	259.88538	-290.27521	118.58895	185.94075	-212.23972	72.33169	217.99391	-390.41974	30.87577	279.58963	-439.78125	51.64512	208.15440	-407.45377	36.32541	165.37787	-366.22565	988.38843	132.37726	-549.06018	975.02985	71.73602	-525.60010	767.80151	-14.78778	-559.35797	715.03516	-12.58617	-591.60712	802.57953	2.72592	-615.33771	744.88428	1.39716	-682.72375	480.31638	33.03264	-703.38007	495.44876	143.07922	-649.09167	395.53183	19.90602	-663.58746	349.79129	17.82178	-709.02734	404.86438	20.78783	-715.26819	358.70871	19.91803	-757.62616	108.92043	53.79914	-768.75708	138.86685	129.24239	-706.29083	67.44551	107.43287	-913.74829	94.74060	122.29774	-923.56628	114.61282	71.22552	-879.42358	74.78442	14.11814
2615	10.45600	-371.13397	993.56128	202.50432	-543.77502	974.46002	309.34607	-445.61499	778.88208	378.22903	-444.15170	716.30151	372.93738	-518.02808	773.52295	358.35425	-507.18384	712.68799	355.12286	-401.31851	468.88312	310.39410	-384.69144	459.22632	194.56647	-312.97107	371.66290	328.07642	-311.87659	328.17633	322.19052	-376.45435	363.46271	321.99936	-364.26297	321.26651	317.41446	-284.27173	93.68373	259.80215	-290.52530	118.77335	185.85873	-212.31000	72.42883	217.94055	-390.44275	30.89116	279.56702	-439.77917	51.57569	208.10384	-407.45023	36.29379	165.37706	-370.62662	987.20154	131.66747	-553.49072	973.98883	71.38655	-529.52679	766.48962	-15.00527	-563.09192	713.58246	-12.77778	-595.76825	800.94647	2.69673	-619.62720	743.25165	1.58792	-687.25696	479.44553	32.91685	-707.31213	494.71387	143.06082	-655.06866	394.23029	19.81174	-670.29181	348.74127	17.74649	-714.94073	404.50760	20.49462	-721.65082	358.30432	19.96079	-769.79266	109.42326	53.36935	-779.76007	139.70091	129.06531	-718.96442	66.84838	106.65032	-925.49335	98.90768	123.12886	-935.27112	118.76153	71.93835	-892.56628	78.22273	14.52192
2616	10.46000	-375.36270	992.60193	201.79094	-547.86914	973.64001	309.03296	-449.04382	778.47510	378.03720	-447.15652	715.98273	372.83847	-521.37793	772.87457	358.35062	-510.17154	712.04254	355.20383	-403.15558	468.66351	310.29858	-386.49985	459.00955	194.46590	-314.40405	371.83411	327.94873	-313.04443	328.46191	321.78421	-377.84439	363.31485	321.96478	-365.40399	321.17535	317.34854	-284.47388	93.93003	259.68442	-290.82800	118.96568	185.76433	-212.40225	72.55251	217.84718	-390.46500	30.89409	279.55554	-439.93311	51.53510	208.09560	-407.47214	36.26983	165.35265	-375.04404	985.99207	130.94110	-557.99933	973.06525	71.03437	-533.16260	765.77466	-15.54101	-566.74457	712.06714	-12.97876	-599.80035	799.28510	2.53580	-623.21606	741.33197	1.12647	-691.92975	478.53827	32.81475	-711.17761	494.05786	143.12550	-661.01971	392.93829	19.69054	-677.01465	347.68100	17.54183	-720.63959	404.07199	20.22484	-727.96277	357.80762	19.58142	-781.52655	110.18416	53.13277	-790.44592	140.63768	128.86836	-731.31329	66.29026	105.96565	-936.93250	102.93909	123.83967	-946.67249	123.05545	72.75056	-905.19415	81.71668	14.97475
2617	10.46400	-379.62494	991.58350	201.07100	-551.96179	972.80127	308.75793	-452.28436	778.14648	377.92236	-450.28207	715.60339	372.67511	-524.56281	772.12720	358.37228	-513.27594	711.41064	355.23804	-404.94724	468.43256	310.22385	-388.48993	458.74829	194.35797	-315.64893	372.06570	327.76730	-314.12518	328.66452	321.62610	-379.06671	363.25323	321.90784	-366.09332	321.31943	317.47900	-284.69247	94.21494	259.57773	-291.11880	119.19480	185.61893	-212.47693	72.68075	217.76891	-390.49933	30.90234	279.52850	-440.03589	51.45380	208.12192	-407.48328	36.24686	165.33319	-379.40829	984.77722	130.20403	-562.54028	972.03571	70.70434	-537.07843	764.41119	-15.71890	-570.22784	710.56201	-13.14288	-603.87006	797.55109	2.42769	-627.03705	739.44769	0.89012	-696.66791	477.66040	32.67804	-715.38440	493.54398	143.05380	-667.00946	391.66107	19.60560	-683.44092	346.80984	17.19267	-726.43451	403.82120	19.98000	-734.45624	357.62277	19.28077	-792.92462	111.00240	52.93102	-800.70337	141.58273	128.81760	-743.29498	65.86459	105.35262	-947.85278	106.88223	124.63409	-957.62793	127.28266	73.61550	-917.38159	85.08294	15.47506
2618	10.46800	-383.80246	990.57971	200.26575	-555.89020	971.96503	308.48105	-455.65298	777.74835	377.75592	-453.38013	715.20569	372.57230	-527.94781	771.45422	358.29654	-516.39423	710.73938	355.19788	-406.76935	468.21021	310.10535	-391.22565	458.66489	193.80533	-316.94922	372.31180	327.53827	-315.27179	328.84381	321.44406	-380.38504	363.11264	321.78229	-367.55655	321.07211	317.16092	-284.83279	94.45400	259.47983	-291.43488	119.43803	185.47029	-212.50522	72.80260	217.66266	-390.47794	30.89516	279.47653	-440.06766	51.40387	208.10812	-407.49176	36.22971	165.30212	-383.76883	983.55542	129.44620	-567.09991	970.96552	70.27689	-540.99780	763.00189	-15.90476	-573.92468	708.96252	-13.40731	-607.96173	795.72009	2.18375	-630.97919	737.57367	0.99077	-701.29242	476.66599	32.50241	-719.54340	492.99707	142.91985	-672.99915	390.41727	19.53604	-690.58844	345.60944	17.44461	-732.22644	403.47177	19.66493	-741.00250	357.37234	19.09027	-803.93445	111.82726	52.76221	-810.52924	142.51387	128.72093	-754.90790	65.47180	104.75107	-958.48633	110.53941	125.43907	-968.10541	131.27583	74.47139	-929.16498	88.39314	15.97858
2619	10.47200	-388.04492	989.54541	199.49931	-559.99518	971.12415	308.12799	-458.65521	777.40979	377.99600	-456.33289	714.82996	372.47076	-531.35919	770.65411	358.24655	-519.43359	710.02112	355.18665	-408.76138	467.97708	309.97836	-393.15518	458.51053	193.81406	-318.43558	372.51071	327.32849	-316.46585	329.06677	321.25949	-381.72845	363.02374	321.74228	-368.30798	321.17422	317.31345	-284.98398	94.70647	259.37976	-291.75027	119.65274	185.34871	-212.57018	72.91684	217.57336	-390.48676	30.88391	279.42017	-440.10388	51.39143	208.09326	-407.53336	36.20069	165.28403	-388.15421	982.31403	128.70389	-571.65161	969.93646	69.96171	-544.79852	761.63611	-16.13203	-577.41412	707.36011	-13.68682	-612.00287	794.23413	1.51472	-634.41125	735.60547	0.75055	-706.12677	475.91202	32.45681	-723.66766	492.40399	142.67303	-679.00940	389.20929	19.39091	-697.34241	344.65338	17.30366	-738.36646	403.34833	19.91242	-747.43597	357.28552	18.76549	-814.56085	112.69341	52.59712	-820.42572	143.15111	128.67691	-766.16510	65.16882	104.14439	-968.73114	113.93784	126.29174	-978.15417	135.13142	75.40057	-940.47632	91.52734	16.46893
2620	10.47600	-392.31152	988.52533	198.78424	-564.27124	970.31573	307.77670	-462.06882	777.00061	377.80859	-459.56595	714.39465	372.29587	-534.72321	769.86188	358.22684	-522.64880	709.34247	355.13501	-410.78235	467.73566	309.83807	-395.14249	458.35922	193.75233	-319.76636	372.77203	327.09042	-317.58273	329.37521	321.07809	-383.12592	362.88480	321.55991	-369.86169	320.99664	317.00537	-285.19733	94.96799	259.28052	-292.04218	119.89767	185.25237	-212.65840	73.03595	217.51482	-390.50458	30.87295	279.38150	-440.20526	51.31804	208.11412	-407.54562	36.17484	165.23892	-392.59589	981.06226	127.95035	-576.22681	968.77295	69.61098	-548.70898	760.20642	-16.30758	-580.95831	705.79272	-13.97423	-616.00891	792.36865	1.24978	-637.80145	733.58783	0.19703	-710.95184	474.99152	32.38619	-728.14093	491.78448	142.40065	-684.97882	388.10431	19.29666	-704.02332	343.81314	17.15345	-743.76825	403.00543	19.39560	-753.89471	357.10980	18.66693	-824.77338	113.45347	52.50951	-829.75092	143.88155	128.57651	-776.88434	64.95720	103.61784	-978.43579	117.23271	127.11720	-987.87555	138.74565	76.34209	-951.19879	94.55025	17.09345
